<mxfile host="app.diagrams.net" modified="2024-07-12T08:59:27.147Z" agent="Mozilla/5.0 (Windows NT 10.0; Win64; x64) AppleWebKit/537.36 (KHTML, like Gecko) Chrome/126.0.0.0 Safari/537.36" version="24.6.4" etag="-XOf_HaEU_w8RqFTRp_D" type="github">
  <diagram name="第 1 页" id="mHgwnJAjcWOOhoPr5U1a">
    <mxGraphModel>
      <root>
        <mxCell id="0" />
        <mxCell id="1" parent="0" />
      </root>
    </mxGraphModel>
  </diagram>
</mxfile>
